<?xml version="1.0" encoding="utf-8"?>
<!-- Generator: Adobe Illustrator 19.2.1, SVG Export Plug-In . SVG Version: 6.00 Build 0)  -->
<svg version="1.1" id="layer" xmlns="http://www.w3.org/2000/svg" xmlns:xlink="http://www.w3.org/1999/xlink" x="0px" y="0px"
	 viewBox="0 0 652 652" style="enable-background:new 0 0 652 652;" xml:space="preserve">
<style type="text/css">
	.st0{fill-rule:evenodd;clip-rule:evenodd;fill:#0087C7;}
	.st1{fill:#E63D38;}
	.st2{fill:#0087C7;}
</style>
<g>
	<path class="st0" d="M123.7,286.1c0-8.3-4.3-15.8-13.9-15.8H35.2c-10.2,0-15.1,7.5-15.1,16.5V298h36.6v93h30.5v-93h36.6V286.1z"/>
	<rect x="156.1" y="308.7" class="st0" width="28.7" height="82.3"/>
	<path class="st0" d="M240.7,308.7h-44.2c-3.5,0-4.1,1.7-4.1,4V391h27.4v-60.9c0-1.2,0.4-2.5,1.8-2.5h9.4c6.8,0,9.7,2.1,9.7,10.1
		V391h27.5v-56.2C268.3,316.1,260.1,308.7,240.7,308.7"/>
	<path class="st0" d="M320.2,308.7h-42.7v7.9c0,8.4,5.4,11,11.8,11h21.8c6.9,0,9.2,2.7,9.2,10.1v3.4h-24.8
		c-13.3,0-21.1,9.4-21.1,24.5c0,15.5,7.4,25.5,19.9,25.5h53.5v-56.2C347.7,316.1,339.5,308.7,320.2,308.7 M320.3,372.2h-12.8
		c-3,0-5.3-1.8-5.3-6.6c0-4.9,2.3-6.6,5.3-6.6h12.8V372.2z"/>
	<path class="st0" d="M123.7,316.2v-7.5H97.8V391h3.5h23.5v-37.4c0-14.9,14.7-21.4,23.6-21.4v-23.5h-1.2
		C138.7,308.7,130.6,311.4,123.7,316.2"/>
	<path class="st1" d="M193.6,274.9c0-12.7-10.3-23.1-23.1-23.1c-12.8,0-23.1,10.4-23.1,23.1c0,12.7,10.3,23.1,23.1,23.1
		C183.3,298,193.6,287.7,193.6,274.9"/>
	<path class="st2" d="M383.3,392.3c-10.7,0-21.6-1.9-25.4-2.9v-7.5c5,0.6,15.6,2.2,25.1,2.2c14.9,0,19.6-5.1,19.6-13.2
		c0-7.9-3.5-11-17.8-16.8l-5.7-2.2c-15.2-6.1-22.2-12.4-22.2-23.7c0-13.2,9.2-19.3,28.4-19.3c9.8,0,19.4,1.6,23.2,2.8v7.3
		c-7.5-1-16.7-1.7-22.8-1.7c-13.2,0-19.1,2.3-19.1,11c0,7.5,4.1,10.7,16.4,15.6l5.7,2.3c17.7,7.5,23.5,12.6,23.5,24.6
		C412.1,382.1,405.7,392.3,383.3,392.3"/>
	<path class="st2" d="M448.9,392.3c-22.5,0-33-12.9-33-37.4v-8.5c0-24.4,10.5-37.4,33-37.4c22.5,0,33,13,33,37.4v8.5
		C482,379.4,471.4,392.3,448.9,392.3 M472.5,346.4c0-20.3-7-28.9-23.5-28.9c-16.4,0-23.5,8.6-23.5,28.9v8.5c0,20.3,7,29.1,23.5,29.1
		c16.5,0,23.5-8.8,23.5-29.1V346.4z"/>
	<rect x="491.6" y="277.4" class="st2" width="9.5" height="113"/>
	<path class="st2" d="M560.2,390.4v-5.7c-5.6,3.4-14.6,7.6-26.5,7.6c-15.5,0-23.7-7-23.7-22.8v-2.2c0-20.2,13-24.3,36.2-24.3h13.5
		v-6.7c0-15.5-3.4-19.1-21-19.1c-7.7,0-14.3,0.6-23.2,1.6v-7c7.5-1.3,13.7-2.8,24-2.8c25.3,0,30,8.6,30,27.3v54.1H560.2z
		 M559.7,350.5h-13.5c-19.1,0-26.7,2.6-26.7,16.8v2.8c0,11,6.1,14.8,16.1,14.8c9.9,0,19.7-4.4,24.1-7.2V350.5z"/>
	<path class="st2" d="M590.3,324.9v65.5h-9.4V311h9.4v6.4c9.4-6.7,20.6-8.5,29.8-8.5v8.6C611.3,317.6,599,319.7,590.3,324.9"/>
</g>
</svg>
