<?xml version="1.0" encoding="utf-8"?>
<!-- Generator: Adobe Illustrator 19.2.1, SVG Export Plug-In . SVG Version: 6.00 Build 0)  -->
<svg version="1.1" id="layer" xmlns="http://www.w3.org/2000/svg" xmlns:xlink="http://www.w3.org/1999/xlink" x="0px" y="0px"
	 viewBox="0 0 652 652" style="enable-background:new 0 0 652 652;" xml:space="preserve">
<style type="text/css">
	.st0{fill:#050052;}
	.st1{fill:#00479D;}
</style>
<g>
	<path class="st0" d="M327.7,336.8c-3.1-1.4-8.9-3.1-17.3-5c-8.4-1.9-13.6-3.8-15.6-5.6c-2-1.8-3-4.1-3-7c0-3.3,1.4-6,4.3-8.3
		c2.9-2.3,7.4-3.5,13.7-3.5c6,0,10.5,1.3,13.6,3.8c3.1,2.5,4.9,6.3,5.4,11.3l10-0.8c-0.2-4.6-1.5-8.7-3.8-12.4
		c-2.4-3.6-5.8-6.4-10.2-8.3c-4.4-1.9-9.6-2.8-15.4-2.8c-5.3,0-10,0.9-14.4,2.7c-4.3,1.8-7.6,4.4-9.8,7.9c-2.2,3.5-3.4,7.2-3.4,11.1
		c0,3.6,0.9,6.9,2.7,9.8c1.8,2.9,4.6,5.3,8.4,7.3c2.9,1.5,7.9,3.2,15.1,4.9c7.2,1.7,11.8,3,13.9,3.8c3.3,1.2,5.6,2.8,7,4.6
		c1.4,1.8,2.1,4,2.1,6.5c0,2.4-0.7,4.7-2.2,6.7c-1.5,2.1-3.7,3.7-6.7,4.9c-3,1.2-6.5,1.8-10.4,1.8c-4.5,0-8.4-0.8-12-2.3
		c-3.5-1.6-6.2-3.6-7.9-6.1c-1.7-2.5-2.8-5.8-3.2-9.7l-9.8,0.8c0.1,5.3,1.6,10,4.3,14.1c2.7,4.2,6.5,7.3,11.3,9.4
		c4.8,2.1,10.7,3.1,17.8,3.1c5.6,0,10.6-1,15.1-3.1c4.5-2.1,7.9-4.9,10.3-8.6c2.4-3.7,3.6-7.6,3.6-11.8c0-4.2-1.1-8-3.3-11.2
		C335.6,341.5,332.3,338.9,327.7,336.8 M435.8,299.5H425v78.6H474v-10.8h-38.2V299.5z M507.9,299.5l-29.2,78.6h11l8.1-23.8h33.6
		l8.7,23.8H552l-31-78.6H507.9z M500.7,345.9l13.3-39.1l14.3,39.1H500.7z M611.9,356.8c-2.7-4.2-5.2-7.9-7.3-10.4
		c-1.2-1.5-3.2-3.3-5.1-4.2c6.9-0.6,10.6-3.2,14.2-7c3.6-3.8,5.4-8.5,5.4-14.1c0-4.3-1.1-8.3-3.3-11.9c-2.2-3.6-5.1-6.1-8.7-7.5
		c-3.7-1.4-9-2.1-15.9-2.1h-34.8v78.6h10.7v-34.9h11.7c2.7,0,4.6,0.1,5.8,0.4c1.6,0.4,3.2,1.1,4.8,2.1c1.5,1,3.3,2.8,5.2,5.3
		c2,2.5,4.5,6.1,7.5,10.8l10.4,16.3h13L611.9,356.8z M589.1,334.3h-22v-26.1h24.5c5.8,0,10,1.2,12.7,3.6c2.7,2.4,4,5.5,4,9.2
		c0,2.5-0.7,4.9-2.1,7.1c-1.4,2.2-3.4,3.7-6.1,4.7C597.6,333.8,593.9,334.3,589.1,334.3 M381.2,298.2c-21.2,0-32.7,12.5-36.5,29.2
		c-0.6,2.7-1.4,7.9-1.4,11.3c0,3.8,0.8,9.3,1.5,12.2c4,16.4,15,28.6,36.4,28.6c21.4,0,30.9-11,35.7-26.2c1.1-3.6,2.2-9.5,2.2-14.4
		c0-3.8-0.8-9.2-1.5-12.1C413.6,310.3,402.9,298.2,381.2,298.2 M407.4,347.6c-2.5,13.1-11.6,23-26.2,23c-14.3,0-22.8-9.1-25.9-21.4
		c-0.5-1.9-1.1-4.5-1.3-11.3c0-2.7,0.9-7.9,1.1-8.7c2.7-12.6,11.1-22,26-22c14.7,0,22.6,8.8,25.8,20.8c0.3,1.2,1.3,6.2,1.4,10
		C408.4,342.4,407.7,346.2,407.4,347.6"/>
	<path class="st1" d="M208.3,284.2C208.3,284.2,208.3,284.2,208.3,284.2c-3.6-6.5-8.7-10.6-14.2-10.6c-5.5,0-10.5,4-14,10.3
		c0,0,0,0,0,0l-56.9,95.5h23.6l47.4-79.7l18.9,31.9H184l-10.8,18.2h50.8l17.6,29.7H265L208.3,284.2z"/>
	<path class="st1" d="M119,332.1c0,17-5,29.4-15.1,37.2c-9,6.8-22.3,10.2-40,10.2H25.4v-18.4h38.4c11.9,0,20.7-1.8,26.4-5.4
		c6.9-4.5,10.3-12.4,10.3-23.6v-58H119V332.1z"/>
</g>
</svg>
