<?xml version="1.0" encoding="utf-8"?>
<!-- Generator: Adobe Illustrator 19.2.1, SVG Export Plug-In . SVG Version: 6.00 Build 0)  -->
<svg version="1.1" id="layer" xmlns="http://www.w3.org/2000/svg" xmlns:xlink="http://www.w3.org/1999/xlink" x="0px" y="0px"
	 viewBox="0 0 652 652" style="enable-background:new 0 0 652 652;" xml:space="preserve">
<style type="text/css">
	.st0{fill:#CE1126;}
</style>
<g id="Page-1">
	<g id="logo">
		<g id="logoshapes">
			<path id="Fill-1" class="st0" d="M594.3,339h8.8l3.1-9.2h-41.6c0,14.4,0.4,19,14.6,19C588.2,348.9,594.3,349,594.3,339
				 M564.7,319.7h29.6c0-13.7-2-14.8-15-14.8C565.6,304.9,564.7,307.9,564.7,319.7 M619.4,265H470.1v95.4h-15.9l0.6-10.1h-0.5
				c-4,8.8-11.4,10.8-20.7,10.8c-24.6,0-25.4-15.7-25.4-36.2c0-19.6,2.6-32.2,25.4-32.2c8.1,0,16.5,1.5,19.9,9.7h0.6V265h-83
				c0,0-9.2,0-12.2,8.7l-7.4,21.5c4.3-1.7,9.9-2.5,17.3-2.5c27.3,0,30.9,8,30.9,37.2h-45.5c0,14.4,0.4,19,14.6,19
				c8.8,0,15,0.1,15-9.8h15.9c0,21-12,22-30.9,22c-23.1,0-29.4-6.8-30.4-27.6l-15.4,45.1c0,0-3,8.7,6.2,8.7h161.4
				c-6.2-2.9-9.9-8.7-9.3-20.1h14.9c0,9.2,3.4,10.6,12.4,10.6c13.5,0,16.4-2.8,16.4-14.3v-12.7h-0.4c-4.2,8.8-12.6,10.3-20.7,10.3
				c-22.7,0-25.4-12.6-25.4-32.2c0-20.5,0.8-36.2,25.4-36.2c9.3,0,16.7,2,20.7,10.8h0.5l-0.6-10.1h15.9v66.7
				c0,15.6-3.2,23.4-12,27.1h49.1c0,0,9.2,0,12.2-8.7L596,360c-4.6,1-10.2,1.1-16.6,1.1c-25.4,0-30.5-8.1-30.5-34
				c0-23.9,3.8-34.4,30.5-34.4c23.5,0,29.5,6,30.6,26.4l15.6-45.4C625.5,273.7,628.5,265,619.4,265 M453.9,324.9
				c0-14.3-1.9-20-15.6-20c-11,0-14.1,3.2-14.1,20c0,15.1-0.4,23.9,14.1,23.9C454.6,348.9,453.9,340.8,453.9,324.9 M368.9,304.9
				c-13.7,0-14.6,2.9-14.6,14.8h29.6C383.9,305.9,381.9,304.9,368.9,304.9 M524.5,324.9c0-14.3-2.1-20-15.9-20
				c-11,0-14.1,3.2-14.1,20c0,15.1,0,23.9,14.1,23.9C524.5,348.9,524.5,340.8,524.5,324.9"/>
			<path id="Fill-3" d="M278.3,293.3v66.1h16v-40.8c-0.3-8.6,2.5-14,12-14c7.5,0,8.1,3.9,8.1,10.6v3.4h15v-5.3
				c0-12.5-3.4-20.8-17.5-20.8c-7.7,0-14.6,2.1-17.7,9.4h-0.6l0.4-8.7H278.3z M247.6,359.3h16v-41.4c0-22.1-8.9-25.4-30.2-25.4
				c-15.2,0-28.5,0.8-28.5,20h16c0-8.6,5.6-9.2,12.5-9.2c13.3,0,14.2,3.8,14.2,14.5v8.6h-0.5c-3.8-7.4-11.8-7.5-19.9-7.5
				c-16.5,0-24.8,4.4-24.8,20.3c0,17.9,9.8,21,24.8,21c7.7,0,17.5-0.3,20.7-9.1h0.4L247.6,359.3z M232.9,329.6
				c7.9,0,14.7,0.3,14.7,9.4c0,9.4-6.2,10.2-14.7,10.2c-10.8,0-14.6-0.9-14.6-10.2C218.4,329.6,224.8,329.6,232.9,329.6z M173,359.3
				h16V265h-16V359.3z M128.1,304.6c14.2,0,15.3,4,15.3,21.9c0,17.6-1.1,21.5-15.3,21.5c-14.2,0-15.3-3.9-15.3-21.5
				C112.8,308.6,113.9,304.6,128.1,304.6z M128.1,292.5c-27.8,0-31.3,8.2-31.3,33.8c0,25.5,3.5,33.7,31.3,33.7
				c27.8,0,31.3-8.2,31.3-33.7C159.4,300.7,155.9,292.5,128.1,292.5z M84.9,311.3c0-18.5-15.6-18.7-28.6-18.7
				c-17.1,0-30.3,0.4-30.3,18.5c0,16.9,4.4,20.1,28.9,20.5c16.1,0.3,16.5,3.1,16.5,8.9c0,9.1-5.6,8.8-15.1,8.8
				c-11.8,0-14.1-1.1-14.3-10.7H26c0,21.5,12.2,21.5,30.3,21.5c16.9,0,31-1.8,31-19.6c0-21.4-13.9-20.3-29.7-21
				C43.7,318.8,42,318.6,42,312c0-8.7,5.8-8.7,14.3-8.7c8.5,0,12.7,0,12.7,7.9H84.9z"/>
		</g>
	</g>
</g>
</svg>
